<?xml version="1.0" encoding="utf-8"?>
<!-- Generator: Adobe Illustrator 16.0.0, SVG Export Plug-In . SVG Version: 6.00 Build 0)  -->
<!DOCTYPE svg PUBLIC "-//W3C//DTD SVG 1.1//EN" "http://www.w3.org/Graphics/SVG/1.1/DTD/svg11.dtd">
<svg version="1.1" id="Layer_1" xmlns="http://www.w3.org/2000/svg" xmlns:xlink="http://www.w3.org/1999/xlink" x="0px" y="0px"
	 width="250px" height="250px" viewBox="0 0 250 250" enable-background="new 0 0 250 250" xml:space="preserve">
<g>
	<defs>
		<rect id="SVGID_1_" x="6.667" y="23.395" width="221.844" height="200.605"/>
	</defs>
	<clipPath id="SVGID_2_">
		<use xlink:href="#SVGID_1_"  overflow="visible"/>
	</clipPath>
	<linearGradient id="SVGID_3_" gradientUnits="userSpaceOnUse" x1="-34.6665" y1="124.2598" x2="259.333" y2="124.2598">
		<stop  offset="0" style="stop-color:#0062E9"/>
		<stop  offset="0.4273" style="stop-color:#0093E9"/>
		<stop  offset="1" style="stop-color:#80D0C7"/>
	</linearGradient>
	<rect x="-34.667" y="-8.667" clip-path="url(#SVGID_2_)" fill="url(#SVGID_3_)" width="294" height="265.852"/>
	<path clip-path="url(#SVGID_2_)" fill="#FFFFFF" d="M142.645,40.106c-14.986,0-27.178-12.192-27.178-27.179
		s12.191-27.179,27.178-27.179s27.178,12.192,27.178,27.179S157.631,40.106,142.645,40.106z M142.645-13.251
		c-14.436,0-26.178,11.744-26.178,26.179s11.742,26.179,26.178,26.179c14.434,0,26.178-11.744,26.178-26.179
		S157.078-13.251,142.645-13.251z"/>
	<linearGradient id="SVGID_4_" gradientUnits="userSpaceOnUse" x1="0.8379" y1="22.376" x2="303.1245" y2="59.7466">
		<stop  offset="0" style="stop-color:#0062E9"/>
		<stop  offset="0.4273" style="stop-color:#0093E9"/>
		<stop  offset="1" style="stop-color:#80D0C7"/>
	</linearGradient>
	<path clip-path="url(#SVGID_2_)" fill="url(#SVGID_4_)" d="M207.09-4.94c-10.355,0-19.334,7.414-21.014,17.632
		c-3.42,20.794-21.736,36.843-43.561,36.843c-22.029,0-40.087-16.174-43.527-36.794C97.281,2.508,88.342-4.94,77.968-4.94H77.89
		c-13.019,0-23.157,11.578-21.122,24.437c6.713,42.415,44.297,72.727,85.748,72.727c42.32,0,78.697-30.861,85.617-72.208
		C230.316,6.966,220.32-4.94,207.09-4.94L207.09-4.94z"/>
	<g opacity="0.41" clip-path="url(#SVGID_2_)">
		<g>
			<linearGradient id="SVGID_5_" gradientUnits="userSpaceOnUse" x1="-41.2617" y1="-41.9751" x2="75.9973" y2="75.2839">
				<stop  offset="0" style="stop-color:#0062E9"/>
				<stop  offset="0.4273" style="stop-color:#0093E9"/>
				<stop  offset="1" style="stop-color:#80D0C7"/>
			</linearGradient>
			<circle fill="url(#SVGID_5_)" cx="13.398" cy="12.685" r="2.388"/>
			<linearGradient id="SVGID_6_" gradientUnits="userSpaceOnUse" x1="-34.3032" y1="-48.9321" x2="82.9558" y2="68.3269">
				<stop  offset="0" style="stop-color:#0062E9"/>
				<stop  offset="0.4273" style="stop-color:#0093E9"/>
				<stop  offset="1" style="stop-color:#80D0C7"/>
			</linearGradient>
			<circle fill="url(#SVGID_6_)" cx="27.314" cy="12.685" r="2.388"/>
			<linearGradient id="SVGID_7_" gradientUnits="userSpaceOnUse" x1="-27.3452" y1="-55.8901" x2="89.9138" y2="61.3689">
				<stop  offset="0" style="stop-color:#0062E9"/>
				<stop  offset="0.4273" style="stop-color:#0093E9"/>
				<stop  offset="1" style="stop-color:#80D0C7"/>
			</linearGradient>
			<circle fill="url(#SVGID_7_)" cx="41.23" cy="12.685" r="2.388"/>
			<linearGradient id="SVGID_8_" gradientUnits="userSpaceOnUse" x1="-20.3877" y1="-62.8477" x2="96.8713" y2="54.4113">
				<stop  offset="0" style="stop-color:#0062E9"/>
				<stop  offset="0.4273" style="stop-color:#0093E9"/>
				<stop  offset="1" style="stop-color:#80D0C7"/>
			</linearGradient>
			<circle fill="url(#SVGID_8_)" cx="55.146" cy="12.685" r="2.388"/>
			<linearGradient id="SVGID_9_" gradientUnits="userSpaceOnUse" x1="-13.4292" y1="-69.8052" x2="103.8298" y2="47.4538">
				<stop  offset="0" style="stop-color:#0062E9"/>
				<stop  offset="0.4273" style="stop-color:#0093E9"/>
				<stop  offset="1" style="stop-color:#80D0C7"/>
			</linearGradient>
			<circle fill="url(#SVGID_9_)" cx="69.061" cy="12.685" r="2.388"/>
		</g>
		<g>
			<linearGradient id="SVGID_10_" gradientUnits="userSpaceOnUse" x1="-46.5884" y1="-36.647" x2="70.6706" y2="80.612">
				<stop  offset="0" style="stop-color:#0062E9"/>
				<stop  offset="0.4273" style="stop-color:#0093E9"/>
				<stop  offset="1" style="stop-color:#80D0C7"/>
			</linearGradient>
			<circle fill="url(#SVGID_10_)" cx="13.398" cy="23.34" r="2.388"/>
			<linearGradient id="SVGID_11_" gradientUnits="userSpaceOnUse" x1="-39.6309" y1="-43.605" x2="77.6281" y2="73.654">
				<stop  offset="0" style="stop-color:#0062E9"/>
				<stop  offset="0.4273" style="stop-color:#0093E9"/>
				<stop  offset="1" style="stop-color:#80D0C7"/>
			</linearGradient>
			<circle fill="url(#SVGID_11_)" cx="27.314" cy="23.34" r="2.388"/>
			<linearGradient id="SVGID_12_" gradientUnits="userSpaceOnUse" x1="-32.6729" y1="-50.5625" x2="84.5861" y2="66.6965">
				<stop  offset="0" style="stop-color:#0062E9"/>
				<stop  offset="0.4273" style="stop-color:#0093E9"/>
				<stop  offset="1" style="stop-color:#80D0C7"/>
			</linearGradient>
			<circle fill="url(#SVGID_12_)" cx="41.23" cy="23.34" r="2.388"/>
			<linearGradient id="SVGID_13_" gradientUnits="userSpaceOnUse" x1="-25.7144" y1="-57.5195" x2="91.5446" y2="59.7395">
				<stop  offset="0" style="stop-color:#0062E9"/>
				<stop  offset="0.4273" style="stop-color:#0093E9"/>
				<stop  offset="1" style="stop-color:#80D0C7"/>
			</linearGradient>
			<circle fill="url(#SVGID_13_)" cx="55.146" cy="23.34" r="2.388"/>
			<linearGradient id="SVGID_14_" gradientUnits="userSpaceOnUse" x1="-18.7563" y1="-64.4775" x2="98.5026" y2="52.7814">
				<stop  offset="0" style="stop-color:#0062E9"/>
				<stop  offset="0.4273" style="stop-color:#0093E9"/>
				<stop  offset="1" style="stop-color:#80D0C7"/>
			</linearGradient>
			<circle fill="url(#SVGID_14_)" cx="69.061" cy="23.34" r="2.388"/>
		</g>
		<g>
			<linearGradient id="SVGID_15_" gradientUnits="userSpaceOnUse" x1="-51.916" y1="-31.3193" x2="65.343" y2="85.9397">
				<stop  offset="0" style="stop-color:#0062E9"/>
				<stop  offset="0.4273" style="stop-color:#0093E9"/>
				<stop  offset="1" style="stop-color:#80D0C7"/>
			</linearGradient>
			<circle fill="url(#SVGID_15_)" cx="13.398" cy="33.995" r="2.388"/>
			<linearGradient id="SVGID_16_" gradientUnits="userSpaceOnUse" x1="-44.9585" y1="-38.2773" x2="72.3005" y2="78.9816">
				<stop  offset="0" style="stop-color:#0062E9"/>
				<stop  offset="0.4273" style="stop-color:#0093E9"/>
				<stop  offset="1" style="stop-color:#80D0C7"/>
			</linearGradient>
			<circle fill="url(#SVGID_16_)" cx="27.314" cy="33.995" r="2.388"/>
			<linearGradient id="SVGID_17_" gradientUnits="userSpaceOnUse" x1="-37.9995" y1="-45.2344" x2="79.2595" y2="72.0246">
				<stop  offset="0" style="stop-color:#0062E9"/>
				<stop  offset="0.4273" style="stop-color:#0093E9"/>
				<stop  offset="1" style="stop-color:#80D0C7"/>
			</linearGradient>
			<circle fill="url(#SVGID_17_)" cx="41.23" cy="33.995" r="2.388"/>
			<linearGradient id="SVGID_18_" gradientUnits="userSpaceOnUse" x1="-31.042" y1="-52.1924" x2="86.217" y2="65.0666">
				<stop  offset="0" style="stop-color:#0062E9"/>
				<stop  offset="0.4273" style="stop-color:#0093E9"/>
				<stop  offset="1" style="stop-color:#80D0C7"/>
			</linearGradient>
			<circle fill="url(#SVGID_18_)" cx="55.146" cy="33.995" r="2.388"/>
			<linearGradient id="SVGID_19_" gradientUnits="userSpaceOnUse" x1="-24.084" y1="-59.1499" x2="93.175" y2="58.1091">
				<stop  offset="0" style="stop-color:#0062E9"/>
				<stop  offset="0.4273" style="stop-color:#0093E9"/>
				<stop  offset="1" style="stop-color:#80D0C7"/>
			</linearGradient>
			<circle fill="url(#SVGID_19_)" cx="69.061" cy="33.995" r="2.388"/>
		</g>
		<g>
			<linearGradient id="SVGID_20_" gradientUnits="userSpaceOnUse" x1="-57.2437" y1="-25.9932" x2="60.0153" y2="91.2658">
				<stop  offset="0" style="stop-color:#0062E9"/>
				<stop  offset="0.4273" style="stop-color:#0093E9"/>
				<stop  offset="1" style="stop-color:#80D0C7"/>
			</linearGradient>
			<circle fill="url(#SVGID_20_)" cx="13.398" cy="44.649" r="2.388"/>
			<linearGradient id="SVGID_21_" gradientUnits="userSpaceOnUse" x1="-50.2861" y1="-32.9507" x2="66.9729" y2="84.3083">
				<stop  offset="0" style="stop-color:#0062E9"/>
				<stop  offset="0.4273" style="stop-color:#0093E9"/>
				<stop  offset="1" style="stop-color:#80D0C7"/>
			</linearGradient>
			<circle fill="url(#SVGID_21_)" cx="27.314" cy="44.649" r="2.388"/>
			<linearGradient id="SVGID_22_" gradientUnits="userSpaceOnUse" x1="-43.3276" y1="-39.9082" x2="73.9314" y2="77.3508">
				<stop  offset="0" style="stop-color:#0062E9"/>
				<stop  offset="0.4273" style="stop-color:#0093E9"/>
				<stop  offset="1" style="stop-color:#80D0C7"/>
			</linearGradient>
			<circle fill="url(#SVGID_22_)" cx="41.23" cy="44.649" r="2.388"/>
			<linearGradient id="SVGID_23_" gradientUnits="userSpaceOnUse" x1="-36.3696" y1="-46.8657" x2="80.8894" y2="70.3933">
				<stop  offset="0" style="stop-color:#0062E9"/>
				<stop  offset="0.4273" style="stop-color:#0093E9"/>
				<stop  offset="1" style="stop-color:#80D0C7"/>
			</linearGradient>
			<circle fill="url(#SVGID_23_)" cx="55.146" cy="44.649" r="2.388"/>
			<linearGradient id="SVGID_24_" gradientUnits="userSpaceOnUse" x1="-29.4312" y1="-53.8428" x2="87.8518" y2="63.4402">
				<stop  offset="0" style="stop-color:#0062E9"/>
				<stop  offset="0.4273" style="stop-color:#0093E9"/>
				<stop  offset="1" style="stop-color:#80D0C7"/>
			</linearGradient>
			<circle fill="url(#SVGID_24_)" cx="69.061" cy="44.649" r="2.388"/>
		</g>
		<g>
			<linearGradient id="SVGID_25_" gradientUnits="userSpaceOnUse" x1="-62.5713" y1="-20.6655" x2="54.6877" y2="96.5935">
				<stop  offset="0" style="stop-color:#0062E9"/>
				<stop  offset="0.4273" style="stop-color:#0093E9"/>
				<stop  offset="1" style="stop-color:#80D0C7"/>
			</linearGradient>
			<circle fill="url(#SVGID_25_)" cx="13.398" cy="55.304" r="2.388"/>
			<linearGradient id="SVGID_26_" gradientUnits="userSpaceOnUse" x1="-55.6294" y1="-27.6392" x2="61.6536" y2="89.6438">
				<stop  offset="0" style="stop-color:#0062E9"/>
				<stop  offset="0.4273" style="stop-color:#0093E9"/>
				<stop  offset="1" style="stop-color:#80D0C7"/>
			</linearGradient>
			<circle fill="url(#SVGID_26_)" cx="27.314" cy="55.304" r="2.388"/>
			<linearGradient id="SVGID_27_" gradientUnits="userSpaceOnUse" x1="-48.6543" y1="-34.5796" x2="68.6047" y2="82.6794">
				<stop  offset="0" style="stop-color:#0062E9"/>
				<stop  offset="0.4273" style="stop-color:#0093E9"/>
				<stop  offset="1" style="stop-color:#80D0C7"/>
			</linearGradient>
			<circle fill="url(#SVGID_27_)" cx="41.23" cy="55.304" r="2.388"/>
			<linearGradient id="SVGID_28_" gradientUnits="userSpaceOnUse" x1="-41.7168" y1="-41.5576" x2="75.5662" y2="75.7253">
				<stop  offset="0" style="stop-color:#0062E9"/>
				<stop  offset="0.4273" style="stop-color:#0093E9"/>
				<stop  offset="1" style="stop-color:#80D0C7"/>
			</linearGradient>
			<circle fill="url(#SVGID_28_)" cx="55.146" cy="55.304" r="2.388"/>
			<linearGradient id="SVGID_29_" gradientUnits="userSpaceOnUse" x1="-34.7593" y1="-48.5161" x2="82.5237" y2="68.7668">
				<stop  offset="0" style="stop-color:#0062E9"/>
				<stop  offset="0.4273" style="stop-color:#0093E9"/>
				<stop  offset="1" style="stop-color:#80D0C7"/>
			</linearGradient>
			<circle fill="url(#SVGID_29_)" cx="69.061" cy="55.304" r="2.388"/>
		</g>
		<g>
			<linearGradient id="SVGID_30_" gradientUnits="userSpaceOnUse" x1="-67.8979" y1="-15.3374" x2="49.361" y2="101.9216">
				<stop  offset="0" style="stop-color:#0062E9"/>
				<stop  offset="0.4273" style="stop-color:#0093E9"/>
				<stop  offset="1" style="stop-color:#80D0C7"/>
			</linearGradient>
			<circle fill="url(#SVGID_30_)" cx="13.398" cy="65.958" r="2.388"/>
			<linearGradient id="SVGID_31_" gradientUnits="userSpaceOnUse" x1="-60.9399" y1="-22.2954" x2="56.319" y2="94.9636">
				<stop  offset="0" style="stop-color:#0062E9"/>
				<stop  offset="0.4273" style="stop-color:#0093E9"/>
				<stop  offset="1" style="stop-color:#80D0C7"/>
			</linearGradient>
			<circle fill="url(#SVGID_31_)" cx="27.314" cy="65.958" r="2.388"/>
			<linearGradient id="SVGID_32_" gradientUnits="userSpaceOnUse" x1="-53.9824" y1="-29.2534" x2="63.2766" y2="88.0056">
				<stop  offset="0" style="stop-color:#0062E9"/>
				<stop  offset="0.4273" style="stop-color:#0093E9"/>
				<stop  offset="1" style="stop-color:#80D0C7"/>
			</linearGradient>
			<circle fill="url(#SVGID_32_)" cx="41.23" cy="65.958" r="2.388"/>
			<linearGradient id="SVGID_33_" gradientUnits="userSpaceOnUse" x1="-47.0239" y1="-36.2104" x2="70.2351" y2="81.0485">
				<stop  offset="0" style="stop-color:#0062E9"/>
				<stop  offset="0.4273" style="stop-color:#0093E9"/>
				<stop  offset="1" style="stop-color:#80D0C7"/>
			</linearGradient>
			<circle fill="url(#SVGID_33_)" cx="55.146" cy="65.958" r="2.388"/>
			<linearGradient id="SVGID_34_" gradientUnits="userSpaceOnUse" x1="-40.0659" y1="-43.1685" x2="77.1931" y2="74.0905">
				<stop  offset="0" style="stop-color:#0062E9"/>
				<stop  offset="0.4273" style="stop-color:#0093E9"/>
				<stop  offset="1" style="stop-color:#80D0C7"/>
			</linearGradient>
			<circle fill="url(#SVGID_34_)" cx="69.061" cy="65.958" r="2.388"/>
		</g>
	</g>
	<linearGradient id="SVGID_35_" gradientUnits="userSpaceOnUse" x1="255.3916" y1="-22.1831" x2="100.0957" y2="136.4347">
		<stop  offset="0" style="stop-color:#0062E9"/>
		<stop  offset="0.4921" style="stop-color:#0093E9;stop-opacity:0.64"/>
		<stop  offset="1" style="stop-color:#80D0C7"/>
	</linearGradient>
	<path opacity="0.67" clip-path="url(#SVGID_2_)" fill="url(#SVGID_35_)" d="M134.077,101.163L134.077,101.163
		c-2.901-2.901-2.901-7.606,0-10.508l42.227-42.226c2.901-2.902,7.606-2.902,10.508,0l0,0c2.901,2.901,2.901,7.606,0,10.508
		l-42.227,42.226C141.684,104.064,136.979,104.064,134.077,101.163z"/>
	<linearGradient id="SVGID_36_" gradientUnits="userSpaceOnUse" x1="12.6235" y1="342.6846" x2="138.0233" y2="222.2674">
		<stop  offset="0" style="stop-color:#0062E9"/>
		<stop  offset="0.4273" style="stop-color:#0093E9"/>
		<stop  offset="1" style="stop-color:#80D0C7"/>
	</linearGradient>
	<path opacity="0.48" clip-path="url(#SVGID_2_)" fill="url(#SVGID_36_)" d="M84.858,275.502L84.858,275.502
		c-6.041-6.041-6.041-15.835,0-21.876l87.909-87.909c6.041-6.04,15.835-6.04,21.876,0l0,0c6.04,6.041,6.04,15.836,0,21.877
		l-87.909,87.908C100.693,281.543,90.899,281.543,84.858,275.502z"/>
	<path opacity="0.14" clip-path="url(#SVGID_2_)" fill="#FFFFFF" d="M82.944,302.048c-1.213,0-2.434-0.1-3.651-0.304
		c-20.138-3.37-38.573-13.919-51.909-29.704c-13.359-15.812-20.717-35.844-20.717-56.405c0-42.566,31.447-79.643,73.149-86.242
		c6.201-0.982,12.507,0.812,17.313,4.918c4.895,4.18,7.701,10.266,7.701,16.696c0,10.795-7.611,19.843-18.099,21.593
		c-21.077,3.516-36.376,21.615-36.376,43.035c0,21.137,15.659,39.651,36.424,43.066c10.459,1.719,18.051,10.764,18.051,21.507
		c0,6.427-2.813,12.494-7.719,16.647C93.119,300.236,88.101,302.048,82.944,302.048z M83.154,130.129
		c-1.059,0-2.122,0.083-3.182,0.25c-41.221,6.524-72.306,43.176-72.306,85.256c0,20.326,7.273,40.128,20.48,55.761
		c13.184,15.604,31.406,26.031,51.312,29.362c6.097,1.021,12.298-0.679,17.008-4.666c4.68-3.962,7.364-9.751,7.364-15.884
		c0-10.251-7.239-18.881-17.213-20.521c-21.243-3.493-37.262-22.432-37.262-44.053c0-21.91,15.649-40.425,37.212-44.021
		c10.003-1.67,17.263-10.303,17.263-20.527c0-6.217-2.679-12.025-7.351-16.016C92.718,131.857,87.992,130.129,83.154,130.129z"/>
</g>
<rect x="71.42" y="69.305" fill="#FFFFFF" width="166.779" height="96.74"/>
<g>
	<linearGradient id="SVGID_37_" gradientUnits="userSpaceOnUse" x1="144.1221" y1="119.0605" x2="242.7324" y2="119.0605">
		<stop  offset="0" style="stop-color:#FFFFFF;stop-opacity:0"/>
		<stop  offset="1" style="stop-color:#FFFFFF"/>
	</linearGradient>
	<path fill="url(#SVGID_37_)" d="M206.928,66.496h30.54c0,0,5.852,0.044,5.217,6.009l-0.185,99.121h-98.378"/>
	<defs>
		<filter id="Adobe_OpacityMaskFilter" filterUnits="userSpaceOnUse" x="111.091" y="203.116" width="88.467" height="7.897">
			<feColorMatrix  type="matrix" values="1 0 0 0 0  0 1 0 0 0  0 0 1 0 0  0 0 0 1 0"/>
		</filter>
	</defs>
	<mask maskUnits="userSpaceOnUse" x="111.091" y="203.116" width="88.467" height="7.897" id="SVGID_38_">
		<g filter="url(#Adobe_OpacityMaskFilter)">
			
				<radialGradient id="SVGID_39_" cx="155.3242" cy="322.4463" r="44.2261" gradientTransform="matrix(1 0 0 0.0893 0 178.2708)" gradientUnits="userSpaceOnUse">
				<stop  offset="0" style="stop-color:#FFFFFF"/>
				<stop  offset="1" style="stop-color:#14130A"/>
			</radialGradient>
			<ellipse fill="url(#SVGID_39_)" cx="155.324" cy="207.064" rx="44.233" ry="3.949"/>
		</g>
	</mask>
	<linearGradient id="SVGID_40_" gradientUnits="userSpaceOnUse" x1="155.3359" y1="211.0039" x2="155.3136" y2="203.1813">
		<stop  offset="0" style="stop-color:#4D4848"/>
		<stop  offset="0.3539" style="stop-color:#14130A"/>
		<stop  offset="1" style="stop-color:#14130A"/>
	</linearGradient>
	<ellipse opacity="0.33" mask="url(#SVGID_38_)" fill="url(#SVGID_40_)" cx="155.324" cy="207.064" rx="44.233" ry="3.949"/>
	<g>
		<linearGradient id="SVGID_41_" gradientUnits="userSpaceOnUse" x1="127.6592" y1="205.625" x2="183.6917" y2="205.625">
			<stop  offset="0.0061" style="stop-color:#58595B"/>
			<stop  offset="0.2803" style="stop-color:#757679"/>
			<stop  offset="0.5091" style="stop-color:#88898D"/>
			<stop  offset="1" style="stop-color:#58595B"/>
		</linearGradient>
		<path fill="url(#SVGID_41_)" d="M128,205v0.636c0,0.017,0,0.033,0,0.052v0.019c0,1.019,1.796,0.294,6.122,0.294
			c8.371,0,17.438,0,20.756,0c0.84,0,1.312,0,1.312,0c3.318,0,12.386,0,20.757,0c4.325,0,5.837,0,5.851,0H182v-1H128z"/>
		<linearGradient id="SVGID_42_" gradientUnits="userSpaceOnUse" x1="155.2432" y1="186.7139" x2="155.2432" y2="208.5846">
			<stop  offset="0.0848" style="stop-color:#6D6F73"/>
			<stop  offset="0.127" style="stop-color:#97999C"/>
			<stop  offset="0.1841" style="stop-color:#CCCDCE"/>
			<stop  offset="0.2121" style="stop-color:#E0E1E2"/>
			<stop  offset="0.3152" style="stop-color:#A7A9AC"/>
			<stop  offset="0.3893" style="stop-color:#868789"/>
			<stop  offset="0.4606" style="stop-color:#636363"/>
			<stop  offset="0.5264" style="stop-color:#6E6F6F"/>
			<stop  offset="0.6452" style="stop-color:#8B8D8F"/>
			<stop  offset="0.7394" style="stop-color:#A6AAAD"/>
		</linearGradient>
		<path fill="url(#SVGID_42_)" d="M177.237,199.549c-3.86-3.932-4.006-11.549-4.006-11.549h-17.334h-1.31h-17.334
			c0,0-0.146,7.617-4.006,11.549c-3.86,3.932-9.904,6.451,0.583,6.451c8.371,0,17.438,0,20.757,0c0.838,0,1.31,0,1.31,0
			c3.319,0,12.386,0,20.758,0C187.142,206,181.098,203.48,177.237,199.549z"/>
		<radialGradient id="SVGID_43_" cx="181.8242" cy="214.8691" r="19.4464" gradientUnits="userSpaceOnUse">
			<stop  offset="0" style="stop-color:#FFFFFF"/>
			<stop  offset="1" style="stop-color:#FFFFFF;stop-opacity:0"/>
		</radialGradient>
		<path fill="url(#SVGID_43_)" d="M158.69,206c2.141-5,8.981-8.143,17.49-8.979c0.391,0.662,0.836,1.042,1.349,1.563
			c3.791,3.865,9.691,7.415-0.047,7.415H158.69z"/>
		
			<radialGradient id="SVGID_44_" cx="187.6836" cy="214.8691" r="19.4464" gradientTransform="matrix(-1 0 0 1 316.9258 0)" gradientUnits="userSpaceOnUse">
			<stop  offset="0" style="stop-color:#FFFFFF"/>
			<stop  offset="1" style="stop-color:#FFFFFF;stop-opacity:0"/>
		</radialGradient>
		<path fill="url(#SVGID_44_)" d="M152.378,206c-2.141-5-8.982-8.143-17.492-8.979c-0.39,0.662-0.835,1.042-1.348,1.563
			c-3.792,3.865-9.691,7.415,0.047,7.415H152.378z"/>
		<linearGradient id="SVGID_45_" gradientUnits="userSpaceOnUse" x1="133.585" y1="206.9199" x2="176.9463" y2="206.9199">
			<stop  offset="0.0061" style="stop-color:#FFFFFF;stop-opacity:0"/>
			<stop  offset="0.5091" style="stop-color:#FFFFFF"/>
			<stop  offset="1" style="stop-color:#FFFFFF;stop-opacity:0"/>
		</linearGradient>
		<path fill="url(#SVGID_45_)" d="M133.585,206.92c3.612-0.06,7.227-0.088,10.841-0.112l10.841-0.033l10.838,0.033l5.422,0.041
			l5.42,0.071l-5.42,0.071l-5.422,0.042l-10.838,0.032l-10.841-0.035C140.812,207.008,137.197,206.979,133.585,206.92z"/>
		<linearGradient id="SVGID_46_" gradientUnits="userSpaceOnUse" x1="62.9404" y1="185.8242" x2="255.3441" y2="173.2124">
			<stop  offset="0" style="stop-color:#78797D"/>
			<stop  offset="0.3173" style="stop-color:#737478"/>
			<stop  offset="0.4909" style="stop-color:#6D6F73"/>
			<stop  offset="1" style="stop-color:#6D6F73"/>
		</linearGradient>
		<path fill="url(#SVGID_46_)" d="M66,181.867c0,2.896,3.248,6.133,6.144,6.133h81.278h2.768h81.278
			c2.895,0,5.532-3.237,5.532-6.133V172H66V181.867z"/>
		<path fill="#231F20" d="M237.468,67h-81.278h-2.768H72.144C69.248,67,66,68.561,66,71.457V172h177V71.457
			C243,68.561,240.362,67,237.468,67z M235,164H74V73h161V164z"/>
		<linearGradient id="SVGID_47_" gradientUnits="userSpaceOnUse" x1="62.978" y1="185.8213" x2="255.3409" y2="173.2121">
			<stop  offset="0" style="stop-color:#898A8F"/>
			<stop  offset="0.0499" style="stop-color:#909196"/>
			<stop  offset="0.3137" style="stop-color:#B1B2B6"/>
			<stop  offset="0.5663" style="stop-color:#C8CACD"/>
			<stop  offset="0.801" style="stop-color:#D6D8DB"/>
			<stop  offset="1" style="stop-color:#DBDDE0"/>
		</linearGradient>
		<path fill="url(#SVGID_47_)" d="M66,181.283c0,2.897,3.248,6.717,6.144,6.717h81.278h2.768h81.278
			c2.895,0,5.532-3.819,5.532-6.717V172H66V181.283z"/>
	</g>
	<path fill="#003F69" d="M186.854,123.521c0,15.555-12.609,28.164-28.164,28.164s-28.164-12.609-28.164-28.164
		c0-15.553,12.609-28.164,28.164-28.164S186.854,107.969,186.854,123.521"/>
	<path fill="#FFFFFF" d="M144.845,109.515h-2.473c-0.067,0-0.123,0.055-0.123,0.123v24.978c0,0.066,0.056,0.121,0.123,0.121h2.473
		c0.066,0,0.122-0.055,0.122-0.121v-24.978C144.967,109.57,144.911,109.515,144.845,109.515"/>
	<path fill="#FFFFFF" d="M153.863,117.892h-1.868c-0.067,0-0.123,0.055-0.123,0.123v16.601c0,0.066,0.056,0.121,0.123,0.121h1.868
		c0.067,0,0.122-0.055,0.122-0.121v-16.601C153.985,117.947,153.931,117.892,153.863,117.892"/>
	<path fill="#FFFFFF" d="M147.771,112.309h-1.309c-0.067,0-0.122,0.053-0.122,0.122v22.185c0,0.066,0.055,0.121,0.122,0.121h1.309
		c0.067,0,0.122-0.055,0.122-0.121V112.43C147.893,112.362,147.838,112.309,147.771,112.309"/>
	<path fill="#FFFFFF" d="M149.491,115.1h0.73c0.067,0,0.122,0.055,0.122,0.123v19.393c0,0.066-0.055,0.121-0.122,0.121h-0.73
		c-0.066,0-0.122-0.055-0.122-0.121v-19.393C149.369,115.155,149.425,115.1,149.491,115.1"/>
	<path fill="#FFFFFF" d="M155.812,120.685h0.729c0.068,0,0.123,0.055,0.123,0.123v13.808c0,0.066-0.055,0.121-0.123,0.121h-0.729
		c-0.067,0-0.123-0.055-0.123-0.121v-13.808C155.688,120.74,155.744,120.685,155.812,120.685"/>
	<path fill="#FFFFFF" d="M172.537,109.515h2.472c0.068,0,0.123,0.055,0.123,0.123v24.978c0,0.066-0.055,0.121-0.123,0.121h-2.472
		c-0.066,0-0.122-0.055-0.122-0.121v-24.978C172.415,109.57,172.471,109.515,172.537,109.515"/>
	<path fill="#FFFFFF" d="M163.748,117.892h1.868c0.067,0,0.122,0.055,0.122,0.123v16.601c0,0.066-0.055,0.121-0.122,0.121h-1.868
		c-0.067,0-0.122-0.055-0.122-0.121v-16.601C163.626,117.947,163.681,117.892,163.748,117.892"/>
	<path fill="#FFFFFF" d="M169.611,112.309h1.309c0.065,0,0.122,0.053,0.122,0.122v22.185c0,0.066-0.057,0.121-0.122,0.121h-1.309
		c-0.067,0-0.122-0.055-0.122-0.121V112.43C169.489,112.362,169.544,112.309,169.611,112.309"/>
	<path fill="#FFFFFF" d="M168.119,115.1h-0.729c-0.069,0-0.123,0.055-0.123,0.123v19.393c0,0.066,0.054,0.121,0.123,0.121h0.729
		c0.067,0,0.123-0.055,0.123-0.121v-19.393C168.242,115.155,168.187,115.1,168.119,115.1"/>
	<path fill="#FFFFFF" d="M161.801,120.685h-0.73c-0.066,0-0.122,0.055-0.122,0.123v13.808c0,0.066,0.056,0.121,0.122,0.121h0.73
		c0.067,0,0.121-0.055,0.121-0.121v-13.808C161.922,120.74,161.868,120.685,161.801,120.685"/>
	<path fill="#FFFFFF" d="M158.172,123.521h1.221c0.067,0,0.123,0.055,0.123,0.123v10.971c0,0.066-0.056,0.121-0.123,0.121h-1.221
		c-0.068,0-0.122-0.055-0.122-0.121v-10.971C158.05,123.577,158.104,123.521,158.172,123.521"/>
</g>
</svg>
