<svg xmlns="http://www.w3.org/2000/svg" xmlns:xlink="http://www.w3.org/1999/xlink" id="Layer_1" x="0px" y="0px" width="500px" height="500px" viewBox="0 0 500 500" xml:space="preserve">
<path fill="#4032EC" d="M248.557,145.828c-8.19,3.611-16.372,7.244-24.549,10.883c16.44,8.275,34.736,8.422,51.244,0.467  c-7.982-3.786-15.968-7.569-23.963-11.33C250.53,145.49,249.329,145.487,248.557,145.828z"></path>
<path fill="#4032EC" d="M249.799,5.559c-135.448,0-245.25,109.802-245.25,245.25c0,135.447,109.802,245.25,245.25,245.25  c135.447,0,245.25-109.803,245.25-245.25C495.049,115.36,385.246,5.559,249.799,5.559z M407,220.707  c-2,1.281-4.255,2.328-6.212,3.879c-17.458,13.832-34.574,27.752-52.038,41.691c-5.557-4.914-10.75-9.512-17.75-15.522  C331,310.817,331,369,331,427c-55,0-108,0-163,0c0-59,0-116.57,0-175.924c-6,5.801-11.492,10.348-16.938,15.246  c-12.975-10.369-25.777-20.759-38.765-30.931C105.786,230.292,99,225.59,92,220.707c0-0.524,0-1.05,0-1.575  c17-16.495,34.045-33.05,51.073-49.421c2.57-2.471,6.005-4.654,9.285-6.012c15.502-6.416,31.205-12.347,46.691-18.801  c4.243-1.769,6.904-1.25,10.393,1.85c0.832,0.738,1.675,1.447,2.524,2.137c11.317-4.987,22.64-9.96,33.933-15.002  c0.644-0.287,1.33-1.324,1.349-2.03c0.123-4.384,0.025-8.772,0.082-13.158c0.017-1.331-0.498-1.784-1.784-2.063  c-3.167-0.686-6.365-1.371-9.405-2.461c-6.434-2.308-11.748-6.27-15.341-12.131c-6.762-11.027-7.173-22.742-2.737-34.619  c3.36-8.994,9.701-15.451,18.803-18.654c13.055-4.596,25.012-1.895,35.562,6.741c8.184,6.699,12.457,15.576,13.016,26.169  c0.217,4.107-2.148,6.872-5.92,7.076c-3.442,0.186-5.974-2.353-6.336-6.29c-0.129-1.404-0.239-2.833-0.59-4.19  c-2.658-10.313-9.439-16.553-19.627-18.9c-6.839-1.576-13.157-0.014-18.536,4.777c-4.594,4.092-6.702,9.361-7.295,15.296  c-0.952,9.515,3.7,18.485,12.71,22.919c3.593,1.768,7.353,2.354,11.235,2.748c5.214,0.529,6.954,2.491,6.97,7.688  c0.018,5.803,0.25,11.619-0.084,17.401c-0.226,3.89,0.533,6.551,4.706,7.475c1.07,0.237,2.013,1,3.036,1.482  c7.273,3.432,14.536,6.86,21.81,10.291c1.109-0.876,2.187-1.778,3.265-2.739c3.512-3.126,6.145-3.557,10.359-1.803  c15.489,6.447,31.097,12.386,46.598,18.806c3.28,1.358,6.245,3.548,8.817,6.02c17.033,16.365,34.438,32.912,50.438,49.4  C407,219.657,407,220.183,407,220.707z"></path>
</svg>