<svg xmlns="http://www.w3.org/2000/svg" xmlns:xlink="http://www.w3.org/1999/xlink" id="Layer_1" x="0px" y="0px" width="500px" height="500px" viewBox="0 0 500 500" xml:space="preserve">
<g>
	<path fill="#4032EC" d="M250.36,4.68c-135.448,0-245.25,109.802-245.25,245.25c0,135.447,109.803,245.25,245.25,245.25   s245.25-109.803,245.25-245.25C495.609,114.481,385.808,4.68,250.36,4.68z M438.384,210.904   c-6.976,0.002-12.991-5.289-13.976-12.026c0.014-0.392,0.017-0.94-0.006-1.342c-0.008-0.129,0.15-0.536,0.14-0.536h-0.262l0,0   h-0.031h-0.008l0,0L400,197.313V197h-2.401c0.003,0,0.234,0.41,0.241,0.539c0.117,2.266,0.16,4.555,2.16,6.42V380h4.742   c3.297,0,6.258,2.652,6.258,5.949v21.533c0,3.297-2.961,5.518-6.258,5.518H93.236c-3.298,0-6.236-2.221-6.236-5.518v-21.533   c0-3.297,2.938-5.949,6.236-5.949H98V208.718c-2,1.428-4.663,2.278-7.367,2.279c-7.396,0.002-13.635-6.309-13.665-13.61   c0.029,7.302-5.808,13.615-13.205,13.617c-7.398,0.002-13.583-6.185-13.583-13.484l0.018-0.029   c0.035-0.033,0.068-0.064,0.103-0.097l26.612-0.007l5.236-10.079c0.063-0.046,0.121-0.099,0.185-0.145L98,157.216L117.135,120H98   h-0.937H97v-8h-3.965C92.03,112,91,110.92,91,109.914V92.74c0-1.006,1.03-1.74,2.035-1.74H98v-2.521   c0-5.037,3.754-9.479,8.656-9.479h283.989c4.901,0,9.355,4.441,9.355,9.479V91h4.265c1.005,0,1.735,0.734,1.735,1.74v17.174   c0,1.006-0.73,2.086-1.735,2.086H400v7.757L399.514,120H380h-0.436h-0.076L400,154.572l18.637,32.62   c3.109,2.23,5.173,5.535,5.652,9.444c0.011-6.828,5.479-12.268,12.574-12.269c4.125,1.839,5.674,7.409,14.225,12.798l0.091,0.137   C451.613,204.594,445.766,210.902,438.384,210.904z"></path>
	<path fill="#4032EC" d="M397.587,197c-0.009,0-0.021,0-0.027,0h-0.003l-0.155,0.001l-4.313-8.728   c-2.52-2.313-5.869-3.823-9.486-3.822c-7.171,0.001-12.73,5.549-12.684,12.549h-0.005c0.002,0-0.002,0.317-0.001,0.438   c-0.007-0.131-0.028-0.438-0.038-0.438h0.039c-0.133-7,5.464-12.627,12.688-12.628c3.617-0.001,6.967,1.528,9.486,3.842   L359.321,120h-0.006h-0.098L359,119.947V120h-19.745h-0.103l28.545,69.467c0.055,0.064,0.102,0.132,0.154,0.196l3.008,7.337   l-26.637,0.003c0.001,0.045,0-0.003-0.002-0.003h-0.011c-0.009,0-0.02,0-0.025,0h-0.027l-0.105,0.001l-1.911-5.872   c-2.475-3.936-6.886-6.672-11.817-6.671c-7.171,0.001-12.775,5.542-12.787,12.542h-0.007c0,0-0.001,0-0.002,0h-0.012   c-0.008,0-0.02,0-0.025,0h0.039c-0.076-7,5.567-12.623,12.794-12.624c4.932-0.001,9.343,2.755,11.817,6.691L318.98,120h-0.068H299   h-0.064h-0.129l17.55,72.641c0.038,0.086,0.073,0.179,0.109,0.268l0.986,4.092l-26.621,0.003c0.001,0.046-0.001-0.003-0.003-0.003   h-0.012c-0.008,0-0.019,0-0.024,0h-0.05h-0.053l-0.385-2.461c-1.647-5.737-7.028-10.076-13.275-10.074   c-7.172,0.001-12.821,5.535-12.893,12.535h-0.008c0,0-0.002,0-0.004,0h-0.012c-0.008,0-0.018,0-0.023,0h-0.039   c-0.02-0.219-0.046-0.436-0.076-0.65l-0.045-0.549c0.077,0.467,0.132,1.199,0.16,1.199h0.039c-0.02-7,5.67-12.619,12.9-12.619   c6.247-0.002,11.628,4.355,13.275,10.093L278.631,120h-20.191l-0.003-0.042l0.003,0.042h-0.003l0.145,1.99l5.185,73.08   c0.004,0.017,0.006,0.034,0.01,0.051l-0.042,2.391L237,197.539c0,0.007,0,0.461,0,0.461h0.4c0.002,0-0.4-0.325-0.4-0.267   c0-0.003,0-0.006,0-0.009c1,7.297,6.566,13.227,13.956,13.225c7.341-0.002,13.212-6.022,13.06-13.256   c0,0.012,0.054,0.022,0.055,0.033c-0.001-0.023,0.026-0.045,0.027-0.068c0.24,7.289,6.428,13.248,13.811,13.246   c7.333-0.002,13.078-5.988,12.908-13.212c0.001,0.009,0.006,0.019,0.006,0.028c-0.001-0.023,0.002-0.047,0.003-0.07   c0.268,7.29,6.466,13.25,13.85,13.248c7.33-0.002,13.281-5.984,13.085-13.205c0.001,0.008,0.24,0.014,0.24,0.021   c0-0.024,0-0.049,0-0.072c0,7.291,6.279,13.251,13.662,13.249c7.328-0.002,12.897-5.978,12.676-13.196   c0,0.004-0.059,0.009-0.059,0.014c-0.001-0.025-0.028-0.05-0.029-0.075c0.322,7.293,6.598,13.254,13.98,13.252   c7.377-0.002,12.77-6.058,12.77-13.342c0,0.026,0,0.058,0,0.08c0,7.294,6.773,13.257,14.157,13.255S398,204.813,398,197.52v-0.002   c0-0.067-0.399-0.518-0.401-0.518H397.587z M259.623,136.371l4.301,59.371c-0.006-0.034-0.012-0.062-0.018-0.094L259.623,136.371z"></path>
	<path fill="#4032EC" d="M210.706,197.402L237.325,197h0.059c-0.012,0-0.028-0.258-0.051-0.473l0.003-0.146   c0.021,0.217,0.036,0.619,0.048,0.619h0.025l0.756-74.929l0.023-2.071h-0.002l0.002-0.217L238.185,120h-19.997h-0.081l-7.15,74.877   c0,0.004-0.002,0.008-0.003,0.013l-0.245,2.779L210.697,198h-0.008c0.002,0,0.011-0.192,0.012-0.139   C210.7,197.808,210.706,197.457,210.706,197.402z"></path>
	<path fill="#4032EC" d="M130.388,198h-0.18l0.074-0.417l-26.533-0.099l0.045-0.104l26.488-0.006l0.097-0.275l0.032-0.09   l2.716-7.721c0.005-0.006,0.01-0.013,0.015-0.02l24.38-69.27h-20.029h-0.146h-0.017l-29.666,68.188   c0.036-0.033,0.074-0.058,0.111-0.087l-0.011,0.025c-0.033,0.021-0.068,0.037-0.101,0.066l-4.007,9.2   c0.058,7.301,6.255,13.813,13.65,13.811C124.632,211.202,130.362,205,130.388,198z"></path>
	<path fill="#4032EC" d="M143.944,210.59c7.319-0.002,13.164-5.814,13.169-13.012l-26.703,0.006   C130.617,204.781,136.625,210.592,143.944,210.59z"></path>
	<path fill="#4032EC" d="M210.689,197.819L183.992,198l0.836-4.666c-0.317,0.836-0.548,1.598-0.687,2.475   c0.138-0.957,0.362-1.813,0.687-2.667L197.902,120h-20.057h-0.068l-18.934,71.352c-0.003,0.006-0.007,0.011-0.01,0.017l-1.55,6.053   L157.186,198h0.085c0,0-0.007-0.097-0.006-0.038c0.116,7.3,6.204,13.121,13.598,13.119c7.306-0.002,13.119-5.901,13.115-13.081   h0.011c0.168,7.279,6.268,13.077,13.646,13.075c7.392-0.002,13.243-5.984,13.068-13.282   C210.7,197.738,210.691,197.873,210.689,197.819z M184.036,196.674c0.007-0.083,0.018-0.162,0.025-0.244   C184.053,196.512,184.043,196.59,184.036,196.674z"></path>
	<path fill="#4032EC" d="M210.706,197.688c0,0.054-0.006,0.052-0.005,0.105c0.175,7.298,6.308,13.196,13.699,13.194   c7.391-0.002,13.217-5.725,13.014-13.021c-0.001-0.059-0.011,0.033-0.014,0.033h-0.078l0.002-0.429L210.706,197.688z"></path>
	<path fill="#4032EC" d="M418.396,187.192l5.844,10.099C423.885,193.16,421.639,189.519,418.396,187.192z"></path>
	<path fill="#4032EC" d="M436.863,184.522c-7.007,0.001-12.422,5.356-12.568,12.157c-0.002-0.014-0.004-0.028-0.006-0.043   c0,0.122-0.012,0.24-0.009,0.363h-0.031l0.037,0.046c0.001,0.089-0.009,0.174-0.006,0.263l26.658-0.006   C442.305,191.895,441.004,186.368,436.863,184.522z"></path>
	<polygon fill="#4032EC" points="117.243,119.748 117.135,119.958 117.243,119.958  "></polygon>
	<polygon fill="#4032EC" points="278.686,119.958 278.686,119.748 278.598,119.748 278.631,119.958  "></polygon>
	<polygon fill="#4032EC" points="319.006,119.958 319.006,119.748 318.912,119.748 318.98,119.958  "></polygon>
	<polygon fill="#4032EC" points="298.936,119.958 298.936,119.748 298.756,119.748 298.756,119.958 298.807,119.958  "></polygon>
	<polygon fill="#4032EC" points="359.315,119.748 359.218,119.748 359.315,119.947  "></polygon>
	<polygon fill="#4032EC" points="339.255,119.958 339.255,119.748 339.066,119.748 339.066,119.958 339.152,119.958  "></polygon>
	<polygon fill="#4032EC" points="359.321,119.958 359.315,119.947 359.315,119.958  "></polygon>
	<polygon fill="#4032EC" points="379.564,119.958 379.564,119.748 379.367,119.748 379.488,119.958  "></polygon>
	<path fill="#4032EC" d="M183,235.885c0-0.676-0.814-0.885-2.06-0.885h-62.53c-1.246,0-2.41,0.209-2.41,0.885V304h-4v6h75v-6h-4   V235.885z M178,299.068c0,0.566-1.078,0.932-2.122,0.932h-52.406c-1.044,0-1.472-0.365-1.472-0.932V241.45   c0-0.567,0.428-1.45,1.472-1.45h52.406c1.044,0,2.122,0.883,2.122,1.45V299.068z"></path>
	<path fill="#4032EC" d="M283.147,266h-72.47c-1.443,0-2.678,0.916-2.678,1.999v110.02c0,1.083,1.234,1.981,2.678,1.981h72.47   c1.442,0,2.853-0.898,2.853-1.981v-110.02C286,266.916,284.59,266,283.147,266z M277,320.246c0,0.449-0.587,0.754-1.717,0.754   h-56.742c-1.13,0-2.542-0.305-2.542-0.754V274.64c0-0.448,1.411-0.64,2.542-0.64h56.742c1.13,0,1.717,0.191,1.717,0.64V320.246z"></path>
	<path fill="#4032EC" d="M383,235.5c0-0.677-1.299-1.5-2.544-1.5h-62.53c-1.245,0-1.926,0.823-1.926,1.5V304h-0.313H312v6h75v-6h-4   V235.5z M377,298.683c0,0.567-0.562,1.317-1.605,1.317h-52.407c-1.044,0-1.987-0.75-1.987-1.317v-57.618   c0-0.566,0.943-1.064,1.987-1.064h52.407c1.044,0,1.605,0.498,1.605,1.064V298.683z"></path>
</g>
</svg>