<svg xmlns="http://www.w3.org/2000/svg" xmlns:xlink="http://www.w3.org/1999/xlink" id="Layer_1" x="0px" y="0px" width="500px" height="500px" viewBox="0 0 500 500" xml:space="preserve">
<g>
	<path fill="#4032EC" d="M250.25,4.922C114.802,4.922,5,114.723,5,250.172c0,135.447,109.802,245.25,245.25,245.25   c135.447,0,245.25-109.803,245.25-245.25C495.5,114.723,385.698,4.922,250.25,4.922z M374.36,369.719l-18.883,12.342   c-0.001,0-0.002,0.002-0.004,0.002l-7.379,4.823l-0.686,0.447l0.002-0.001l-1.747,1.143l-37.646,24.604   c-6.865,4.486-13,7.273-13.694,6.213L181.568,246.77c-0.096-0.146-14.29-58.538-23.007-98.533   c-2.566-11.114-10.553-46.755-7.979-48.931c2.447-2.069,44.283,29.223,44.283,29.223l-0.048,0.031   c32.649,23.787,77.878,58.444,77.973,58.59l112.755,172.52C386.24,360.731,381.223,365.233,374.36,369.719z"></path>
	<polygon fill="#4032EC" points="353.955,372.508 245.331,204.887 213.782,225.673 322.405,393.295  "></polygon>
	<path fill="#4032EC" d="M259.143,184.75c0,0-38.16-29.988-64.834-51.405l-28.994,20.625c0,0,18.426,78.396,19.734,84.121   L259.143,184.75z"></path>
</g>
</svg>