<svg xmlns="http://www.w3.org/2000/svg" xmlns:xlink="http://www.w3.org/1999/xlink" id="Layer_1" x="0px" y="0px" width="500px" height="500px" viewBox="0 0 500 500" xml:space="preserve">
<g>
	<path fill="#4032EC" d="M249.921,5.043c-135.448,0-245.25,109.802-245.25,245.25c0,135.448,109.802,245.25,245.25,245.25   s245.25-109.802,245.25-245.25C495.171,114.845,385.369,5.043,249.921,5.043z M416.695,319.684   c-1.558,5.753-7.467,9.178-13.223,7.621l-25.594-7.145c-7.417,13.488-14.563,24.189-27.516,35.559l0.061,0.105l13.352,23.25   c2.968,5.168,0.359,11.602-4.809,14.569l-40.434,23.218c-5.167,2.968-9.223,0.361-12.19-4.809l-13.349-23.246   c-16.463,5.259-31.069,6.76-46.036,6.243l-0.599,0.444l-7.283,26.041c-1.555,5.752-7.621,9.236-13.374,7.68l-45.079-12.131   c-5.751-1.555-9.189-7.461-7.634-13.212l6.636-26.47c-13.488-7.417-24.699-15.436-36.068-28.39l-0.107,0.062L120.2,362.425   c-5.167,2.968-9.748,1.63-12.716-3.539l-23.219-40.433c-2.968-5.168-2.213-10.493,2.955-13.46l23.246-13.35   c-5.258-16.463-6.256-30.191-5.737-45.158l-0.192-0.16l-25.917-7.063c-5.753-1.557-9.174-7.512-7.618-13.266l12.164-45.022   c1.557-5.754,7.475-9.163,13.229-7.607l26.9,6.406c7.417-13.49,15.865-24.929,28.819-36.297l-0.062-0.108l-13.351-23.249   c-2.967-5.166-3.481-11.018,1.687-13.986l40.433-23.218c5.167-2.967,12.346-0.944,15.313,4.224l13.35,23.248   c16.463-5.258,29.767-6.014,44.734-5.496l-0.051-0.071l6.959-25.854c1.555-5.753,7.459-9.146,13.212-7.587l44.995,12.177   c5.752,1.556,9.15,7.483,7.593,13.235l-6.916,26.027c13.49,7.417,26.103,17.922,35.788,27.945l0.105-0.06l23.25-13.351   c5.168-2.967,12.871-2.213,15.84,2.956l23.217,40.431c2.969,5.168-0.909,11.078-6.076,14.045l-23.246,13.349   c5.259,16.462,6.516,30.646,5.997,45.613l0.323,0.389l25.982,7.177c5.752,1.554,9.206,7.569,7.65,13.322L416.695,319.684z"></path>
	<path fill="#4032EC" d="M308.115,216.582c-2.885-5.024-6.321-9.534-10.188-13.498c-0.773-0.793-1.563-1.564-2.37-2.313   c-1.211-1.123-2.459-2.196-3.738-3.219c-0.854-0.682-1.723-1.341-2.605-1.977c-0.587-0.424-1.184-0.834-1.782-1.238   c-1.201-0.809-2.425-1.58-3.67-2.306c-0.935-0.544-1.88-1.066-2.838-1.563c-0.761-0.396-1.53-0.772-2.306-1.138   c-0.686-0.325-1.375-0.641-2.071-0.941c-0.494-0.213-0.991-0.42-1.489-0.622c-0.997-0.402-2.004-0.781-3.018-1.135   c-0.508-0.176-1.017-0.348-1.527-0.512c-1.022-0.33-2.053-0.635-3.09-0.915c-0.518-0.14-1.037-0.274-1.56-0.402   c-2.085-0.511-4.196-0.923-6.325-1.233c-0.531-0.078-1.064-0.149-1.599-0.214c-1.068-0.129-2.141-0.234-3.215-0.312   c-1.075-0.079-2.152-0.131-3.231-0.158c-0.54-0.013-1.08-0.02-1.621-0.021c-1.081,0-2.164,0.025-3.246,0.077   c-10.289,0.493-20.617,3.37-30.162,8.851c-7.683,4.411-14.158,10.113-19.321,16.672c-0.474,0.603-0.938,1.213-1.39,1.83   c-0.42,0.573-0.834,1.149-1.234,1.733c-1.227,1.792-2.362,3.638-3.404,5.529c-0.521,0.946-1.02,1.903-1.493,2.871   c-0.474,0.967-0.924,1.946-1.351,2.934c-0.213,0.494-0.42,0.99-0.621,1.489c-1.163,2.882-2.125,5.841-2.879,8.852   c-0.755,3.011-1.302,6.075-1.635,9.168c-0.134,1.237-0.233,2.479-0.298,3.725c-0.194,3.736-0.077,7.502,0.363,11.256   c1.025,8.76,3.804,17.461,8.474,25.594c9.81,17.082,25.988,28.221,43.822,32.143c1.573,0.346,3.16,0.636,4.756,0.868   c0.532,0.077,1.064,0.149,1.599,0.214c1.068,0.13,2.141,0.233,3.216,0.313c3.225,0.234,6.475,0.238,9.723,0.004   c1.084-0.078,2.166-0.184,3.249-0.315c8.657-1.054,17.251-3.822,25.289-8.438c9.546-5.48,17.236-12.952,22.848-21.589   c0.59-0.909,1.158-1.831,1.702-2.766c0.817-1.401,1.582-2.829,2.292-4.28c0.474-0.969,0.925-1.946,1.351-2.935   c0.213-0.493,0.42-0.99,0.621-1.488c0.403-0.997,0.781-2.004,1.135-3.019c0.531-1.521,1.008-3.062,1.428-4.616   c0.28-1.036,0.536-2.079,0.767-3.128c0.577-2.623,0.997-5.282,1.258-7.961c0.104-1.072,0.183-2.146,0.235-3.225   c0.053-1.076,0.08-2.156,0.08-3.237c0.001-1.622-0.058-3.247-0.175-4.872C316.163,235.371,313.309,225.625,308.115,216.582z"></path>
</g>
</svg>