<svg xmlns="http://www.w3.org/2000/svg" xmlns:xlink="http://www.w3.org/1999/xlink" id="Layer_1" x="0px" y="0px" width="200px" height="200px" viewBox="0 0 200 200" xml:space="preserve">
<g>
	<g>
		<path fill="#FFFFFF" d="M68.906,93.198H46.771c-13.226,0-23.979-10.757-23.979-23.979V47.087    c0-13.231,10.754-23.981,23.979-23.981h22.134c13.213,0,23.983,10.75,23.983,23.981v22.132    C92.889,82.441,82.119,93.198,68.906,93.198z M46.771,34.172c-7.114,0-12.909,5.793-12.909,12.915v22.132    c0,7.12,5.795,12.915,12.909,12.915h22.134c7.12,0,12.915-5.795,12.915-12.915V47.087c0-7.121-5.795-12.915-12.915-12.915H46.771z    "></path>
	</g>
	<g>
		<path fill="#FFFFFF" d="M68.906,179.615H46.771c-13.226,0-23.979-10.755-23.979-23.983v-22.134    c0-13.216,10.754-23.98,23.979-23.98h22.134c13.213,0,23.983,10.765,23.983,23.98v22.134    C92.889,168.86,82.119,179.615,68.906,179.615z M46.771,120.589c-7.114,0-12.909,5.788-12.909,12.909v22.134    c0,7.12,5.795,12.916,12.909,12.916h22.134c7.12,0,12.915-5.796,12.915-12.916v-22.134c0-7.121-5.795-12.909-12.915-12.909H46.771    z"></path>
	</g>
	<g>
		<path fill="#FFFFFF" d="M160.168,93.199h-22.134c-13.226,0-23.979-10.758-23.979-23.979V47.087    c0-13.231,10.754-23.981,23.979-23.981h22.134c13.214,0,23.984,10.75,23.984,23.981v22.132    C184.152,82.441,173.382,93.199,160.168,93.199z M138.034,34.172c-7.114,0-12.909,5.793-12.909,12.915v22.132    c0,7.12,5.795,12.915,12.909,12.915h22.134c7.121,0,12.915-5.795,12.915-12.915V47.087c0-7.121-5.794-12.915-12.915-12.915    H138.034z"></path>
	</g>
	<g>
		<path fill="#FFFFFF" d="M160.168,179.615h-22.134c-13.226,0-23.979-10.755-23.979-23.983v-22.134    c0-13.216,10.754-23.98,23.979-23.98h22.134c13.214,0,23.984,10.765,23.984,23.98v22.134    C184.152,168.86,173.382,179.615,160.168,179.615z M138.034,120.589c-7.114,0-12.909,5.788-12.909,12.909v22.134    c0,7.12,5.795,12.916,12.909,12.916h22.134c7.121,0,12.915-5.796,12.915-12.916v-22.134c0-7.121-5.794-12.909-12.915-12.909    H138.034z"></path>
	</g>
</g>
</svg>